<svg width="50" height="50" viewBox="0 0 200 200" xmlns="http://www.w3.org/2000/svg">
  <defs>
    <linearGradient id="paperGradient" x1="0%" y1="0%" x2="0%" y2="100%">
      <stop offset="0%" stop-color="#FDF8EC"/>
      <stop offset="100%" stop-color="#EBE3D6"/>
    </linearGradient>
    <linearGradient id="darkPaperGradient" x1="0%" y1="0%" x2="0%" y2="100%">
      <stop offset="0%" stop-color="#D6CFBF"/>
      <stop offset="100%" stop-color="#C2BAAB"/>
    </linearGradient>
  </defs>

  <g transform="translate(7.5, 0)">

    <g transform="translate(60, 20) rotate(5)">
      <rect x="0" y="0" width="100" height="120" rx="10" fill="url(#darkPaperGradient)" stroke="#4A4A4A" stroke-width="2"/>
      <line x1="85" y1="20" x2="85" y2="100" stroke="#4A4A4A" stroke-width="2" stroke-dasharray="2,4"/>
    </g>

    <rect x="25" y="40" width="120" height="140" rx="10" fill="url(#paperGradient)" stroke="#4A4A4A" stroke-width="2"/>

    <rect x="40" y="55" width="90" height="60" rx="5" fill="#C2E6F2" stroke="#4A4A4A" stroke-width="2"/>

    <path d="M40 115 L65 75 L85 110 L105 70 L130 115 Z" fill="#2DA592" stroke="#4A4A4A" stroke-width="2" stroke-linejoin="round"/>
    <path d="M55 115 L75 85 L95 115 Z" fill="#2DA592" stroke="#4A4A4A" stroke-width="2" stroke-linejoin="round"/>

    <circle cx="115" cy="70" r="8" fill="#FDD755" stroke="#4A4A4A" stroke-width="2"/>

    <rect x="40" y="130" width="70" height="5" rx="2" fill="#4A4A4A"/>
    <rect x="40" y="140" width="50" height="5" rx="2" fill="#4A4A4A"/>
    <rect x="40" y="150" width="60" height="5" rx="2" fill="#4A4A4A"/>

  </g> </svg>